<svg xmlns="http://www.w3.org/2000/svg" viewBox="0 0 1299.2133 566.93335"><defs><clipPath id="a"><path d="M0 0h9744v4251.97H0z"/></clipPath></defs><g clip-path="url(#a)" transform="matrix(.13333 0 0 -.13333 0 566.933)"><path d="M8858.27 708.66H885.828c-97.848 0-177.168 79.32-177.168 177.168V3366.14c0 97.85 79.32 177.17 177.168 177.17H8858.27c97.84 0 177.16-79.32 177.16-177.17V885.828c0-97.848-79.32-177.168-177.16-177.168" fill="#aa1835"/><path d="M2546.84 2492.09c66.82 0 112.69-4.7 135.05-28.65 22.08-23.49 33.2-74.48 34.16-155.89-94.64-3.96-274.79-3.7-365.08 5.69 6.92 144.5 16.86 178.85 195.87 178.85zm-276.78-21.56c-20.12-46.91-32.12-124.93-32.12-208.43 0-137.31 24.5-219.76 79.37-267.46 56.26-49.01 147.3-55.74 237.28-55.74 86.44 0 138.71 7.31 233.61 20.62l7.41.99.94 95.66-4.64-.84c-1.15-.2-120.27-20.88-242.49-20.88-82.51 0-137.18 14.62-162.57 43.11-32.35 35.75-37.49 88.46-37.7 140.49 26.23-.73 177.46-5.22 261.07-5.22 76.43 0 210.15 9.81 211.51 9.92l3.39.26.21 3.39c.03.58 3.26 58.3 3.26 79.53 0 106.05-14.4 169.72-48.22 212.98-47.62 58.4-148.68 66.28-241.26 66.28-114.21 0-225.86-13.89-269.05-114.66m774.66 298.15h.03zm0 0c-40.83-39.61-59.85-101.66-59.85-195.23 0-103.6 26.38-164.55 85.58-197.53 54.1-30.32 132.69-34.19 223.65-38.52l32.54-1.67c87.07-4.38 142-7.98 172.09-27.18 27.14-17.33 36.71-48.07 36.71-117.63 0-60.59-12.29-94.2-42.4-115.92-30.11-21.65-81.59-31.36-166.97-31.36-131.38 0-322.65 24.01-322.65 24.01l-.6-107.14s163.69-21.61 324.58-21.61c133.36 0 211.09 18.06 259.86 60.38 48.56 42.07 68.37 104.06 68.37 213.6 0 103.13-27.24 167.11-85.87 201.55-52.76 31-125.38 35.07-209.56 39.77l-82.14 5.16-16.18 1c-115.08 7.15-158.15 9.76-158.15 111.88 0 58.09 5.57 96.66 33.99 121.96 29.72 26.47 85.82 38.31 181.88 38.31 132.45 0 293.03-20.25 293.03-20.25l.1 101.82-3.39.42c-1.83.21-178.19 21.34-293.61 21.34-147.09 0-220.57-18.16-271.01-67.16m900.16-702.08c-22.7 29.91-26.83 89.35-26.83 195.5 0 106.04 4.13 165.38 26.83 195.39 22.1 29.27 66.61 34.6 146.36 34.6 79.69 0 124.23-5.33 146.38-34.6 22.65-30.01 26.75-89.35 26.75-195.39 0-106.15-4.1-165.59-26.75-195.5-22.15-29.27-66.69-34.6-146.38-34.6-79.75 0-124.26 5.33-146.36 34.6zm-87.52 454.66c-44.18-51.14-53.08-137.1-53.08-259.16 0-122.17 8.9-208.18 53.08-259.32 45.79-53.02 126.68-63.88 233.88-63.88 107.21 0 188 10.86 233.84 63.88 44.18 51.14 53.05 137.15 53.05 259.32 0 122.06-8.87 208.02-53.05 259.16-45.84 52.97-126.63 63.93-233.84 63.93-107.2 0-188.09-10.96-233.88-63.93M4975 2577.41s-.26-516.96-.26-522.81c-22.96-5.9-90.34-21.34-160.27-21.34-132.5 0-152.54 20.51-152.54 156.4v387.75h-109.8v-403.3c0-97.28 14.35-151.24 49.73-185.99 35.43-34.97 90.34-49.22 189.28-49.22 30.27 0 73.43 5.8 91.75 8.25l7.25.94c10.49 1.25 22.29 5.69 41.7 13.88 19.94 8.51 31.58 16.18 32.04 16.44 5.54 3.81 10.23 6.94 14.72 6.94 3.97 0 5.16 0 6.68-8.72l.16.11c0-.84 4.27-28.81 4.27-28.81h95.25l-.37 629.48H4975m520.15 1.15l-12.53-1.2c-13.93-1.2-48.48-17.95-55.53-22.02-9.39-5.38-29.95-15.4-34.81-15.4-4.01 0-5.26 0-6.72 8.77.04-.05-4.44 28.7-4.44 28.7h-93.52v-629.48h109.8v523.65c25.16 5.32 98.85 19.25 169.3 19.25 72.96 0 107.34-7.3 126.55-27.03 19-19.52 25.94-54.22 25.94-128.07v-389.05h109.9v404.61c0 96.07-14.82 151.49-49.58 185.42-34.59 33.97-91.32 48.48-189.54 48.48-28.44 0-71.49-4.33-94.82-6.63m647.8-501.73c-22.71 31.06-31.47 82.98-31.47 185.27s8.87 154.37 31.94 185.79c22.64 30.78 60.48 42.94 134.8 42.94 55.27 0 122.69-7.15 165.43-13.51v-420.11c-24.16-6.21-95.08-22.76-165.43-22.76-74.11 0-113.25 12.32-135.27 42.38zm300.12 760.37s.47-260.62.58-269.6c-24.06 4.33-104.43 17.59-192.62 17.59-101.92 0-170.5-31.26-209.69-95.35-38.51-62.83-43.63-150.45-43.63-227.74 0-78.6 5.06-167.31 42.74-230.1 37.47-62.62 103.07-93.1 200.24-93.1 48.02 0 80.53 4.8 99.94 7.57l12.22 1.67c14.45 1.41 47.64 18.89 49.67 19.94 4.86 2.03 10.91 4.9 16.86 7.87 7.57 3.76 19 9.29 21.66 9.4 5.79 0 6.68-.83 7.99-8.72l4.43-28.7h99.62l.42 889.27h-110.43M1803.8 2733.77c82.86 0 130.36-10.96 153.87-35.65l.23-.26c26.02-25.99 28.18-64.61 28.18-108.86 0-43.37-2.16-81.52-28.18-107.51-23.69-24.89-71.24-35.96-154.1-35.96h-267.54v288.24h267.54zm-383.92 103.43v-889.27h116.17s.21 387.96.21 395.48c7.17 0 180.95.05 184.92.05 2.3-3.34 265.84-395.53 265.84-395.53h142.47l-264.79 392.55s-1.28 2.82 2.37 2.82c13.12 0 55.19 2.5 110.2 21.87 31.2 11.11 53.33 28.6 72.19 48.74 37.37 41.49 55.51 98.32 55.51 173.84 0 92.78-19.76 154.05-62.16 192.83-42.4 38.56-109.25 56.62-210.55 56.62zm555.45-122.01s.08-.05.11-.11l-.18.27c.02-.06.04-.11.07-.16m-483.96-1297.34h-59.51c-8.03 0-14.54 6.51-14.54 14.54v148.02c0 8.03 6.51 14.54 14.54 14.54h59.51c8.03 0 14.54-6.51 14.54-14.54v-148.02c0-8.03-6.51-14.54-14.54-14.54m298.28 0h-69.21c-8.41 0-15.22 6.82-15.22 15.23v146.64c0 8.41 6.81 15.23 15.22 15.23h69.21c8.41 0 15.22-6.82 15.22-15.23v-146.64c0-8.41-6.81-15.23-15.22-15.23m298.27 0h-78.89c-8.79 0-15.92 7.13-15.92 15.92v145.26c0 8.79 7.13 15.92 15.92 15.92h78.89c8.79 0 15.92-7.13 15.92-15.92v-145.26c0-8.79-7.13-15.92-15.92-15.92m298.28 0h-88.59c-9.17 0-16.61 7.44-16.61 16.61v143.88c0 9.17 7.44 16.61 16.61 16.61h88.59c9.17 0 16.61-7.44 16.61-16.61v-143.88c0-9.17-7.44-16.61-16.61-16.61m298.27 0h-98.27c-9.56 0-17.3 7.75-17.3 17.3v142.5c0 9.55 7.74 17.3 17.3 17.3h98.27c9.56 0 17.3-7.75 17.3-17.3v-142.5c0-9.55-7.74-17.3-17.3-17.3m298.27 0h-107.96c-9.93 0-17.99 8.06-17.99 18v141.1c0 9.94 8.06 18 17.99 18h107.96c9.94 0 18-8.06 18-18v-141.1c0-9.94-8.06-18-18-18m298.28 0h-117.65c-10.32 0-18.68 8.37-18.68 18.69v139.72c0 10.32 8.36 18.69 18.68 18.69h117.65c10.32 0 18.68-8.37 18.68-18.69v-139.72c0-10.32-8.36-18.69-18.68-18.69m298.27 0h-127.33c-10.71 0-19.38 8.68-19.38 19.38v138.34c0 10.7 8.67 19.38 19.38 19.38h127.33c10.71 0 19.38-8.68 19.38-19.38v-138.34c0-10.7-8.67-19.38-19.38-19.38m298.28 0h-137.03c-11.08 0-20.07 8.99-20.07 20.07v136.96c0 11.08 8.99 20.07 20.07 20.07h137.03c11.08 0 20.07-8.99 20.07-20.07v-136.96c0-11.08-8.99-20.07-20.07-20.07m298.27 0h-146.71c-11.47 0-20.76 9.3-20.76 20.76v135.57c0 11.47 9.29 20.77 20.76 20.77h146.71c11.47 0 20.76-9.3 20.76-20.77v-135.57c0-11.46-9.29-20.76-20.76-20.76m298.28 0h-155.71c-11.85 0-21.46 9.61-21.46 21.46v134.18c0 11.85 9.61 21.46 21.46 21.46h155.71c11.85 0 21.45-9.61 21.45-21.46v-134.18c0-11.85-9.6-21.46-21.45-21.46m3104.77 0H4636.38c-21.66 0-39.22 17.56-39.22 39.22v98.66c0 21.66 17.56 39.22 39.22 39.22h2942.51c21.66 0 39.22-17.56 39.22-39.22v-98.66c0-21.66-17.56-39.22-39.22-39.22m698.4 802.71c-13.32 0-26.41 5.19-36.2 14.98l-408 408.01c-6.04 6.04-16.38 1.76-16.38-6.79v-363.33c0-28.18-22.04-52.35-50.22-52.86-28.7-.53-52.13 22.58-52.13 51.16v510.21c0 17.95 8.6 35.22 23.79 44.77a51.216 51.216 0 0 0 63.58-7.05l407.99-408c6.04-6.05 16.38-1.77 16.38 6.78v363.33c0 28.18 22.04 52.35 50.21 52.86 28.7.53 52.14-22.58 52.14-51.16V2273.3c0-18.46-9.13-36.15-25.02-45.56a51.197 51.197 0 0 0-26.14-7.18m-716.5 358.21h-151.53c-28.26 0-52.57-22.1-53.01-50.35-.44-28.64 22.64-51.99 51.17-51.99h89.56c7.06 0 12.79-5.73 12.79-12.8V2335.7c0-7.07-5.73-12.79-12.79-12.79v-.01h-187.97c-119.06 0-214.99 97.45-208.31 216.32 6.05 107.49 95.4 193.08 204.38 193.08h254.02c28.26 0 52.57 22.1 53.01 50.36.45 28.63-22.63 51.98-51.17 51.98h-251.22c-164.69 0-303.66-127.87-311.35-292.39-8.22-175.93 132.54-321.69 306.71-321.69h255.71c28.35 0 51.33 22.98 51.33 51.32v255.57c0 28.35-22.98 51.32-51.33 51.32" fill="#fff"/></g></svg>