<?xml version="1.0" encoding="utf-8"?>
<!-- Generator: Adobe Illustrator 24.3.0, SVG Export Plug-In . SVG Version: 6.00 Build 0)  -->
<svg version="1.1" id="Layer_1" xmlns="http://www.w3.org/2000/svg" xmlns:xlink="http://www.w3.org/1999/xlink" x="0px" y="0px"
	 viewBox="0 0 92.1 107.4" style="enable-background:new 0 0 92.1 107.4;" xml:space="preserve">
<style type="text/css">
	.st0{fill:#FFFFFF;}
	.st1{fill:#FF0000;}
</style>
<g id="XMLID_123_">
	<g id="XMLID_132_">
		<path id="XMLID_136_" class="st0" d="M33.2,81.4L33.2,81.4c-5,0-9,4-9,9c0,5,4.1,9,8.9,9c2.4,0,4.3-1,5.6-2.6v1.5
			c0,3-2.4,5.4-5.5,5.4l-0.7,0v3.6h0.7c5,0,9-4,9-9v-7.9C42.2,85.4,38.2,81.4,33.2,81.4 M33.2,95.4c-2.8,0-5-2.2-5-5
			c0-2.8,2.2-5,5-5c2.9,0,5,2.4,5,5C38.2,93.2,36,95.4,33.2,95.4 M54.2,81.4c4.2,0,7.6,3.4,7.6,7.6v10h-4V89c0-2-1.7-3.6-3.6-3.6
			S50.5,87,50.5,89v10h-4V89C46.5,84.8,50,81.4,54.2,81.4 M83.1,81.4L83.1,81.4c-5,0-9,4-9,9c0,5,4.1,9,8.9,9c2.4,0,4.3-1,5.6-2.6
			V99h3.6v-8.6C92.1,85.4,88.1,81.4,83.1,81.4 M83.1,95.4c-2.8,0-5-2.2-5-5c0-2.8,2.2-5,5-5c2.5,0,5,2,5,5
			C88.1,93.2,85.9,95.4,83.1,95.4 M66.5,81.8h4v17.2h-4V81.8z"/>
		<path id="XMLID_134_" class="st0" d="M16.6,81.8h4v17.2h-4V81.8z"/>
		<path id="XMLID_133_" class="st0" d="M4.6,88v4.9c0,1.2-1,2.2-2.2,2.2H0v4h2.5c3.4,0,6.2-2.8,6.2-6.2V88c0-1.2,1-2.2,2.2-2.2h2.5
			v-4h-2.5C7.4,81.8,4.6,84.6,4.6,88"/>
	</g>
</g>
<g id="XMLID_1_">
	<g id="XMLID_143_">
		
			<ellipse id="XMLID_145_" transform="matrix(0.8944 -0.4472 0.4472 0.8944 -10.8737 24.3147)" class="st1" cx="46.1" cy="35.2" rx="35.2" ry="35.2"/>
	</g>
</g>
<path id="XMLID_144_" class="st0" d="M41.5,29.5V41c0,2.8-2.3,5-5,5h-5.7v9.1h5.7c7.9,0,14.3-6.4,14.3-14.2V29.5c0-2.7,2.3-5,5-5
	h5.7v-9.2h-5.7C47.8,15.3,41.5,21.7,41.5,29.5"/>
</svg>
